<svg xmlns="http://www.w3.org/2000/svg" data-name="Layer 1" viewBox="0 0 600 600" id="Capybara"><path fill="#d85b53" d="m554.7121,335.653c-.23-33.5487-35.5796-73.7613-35.5796-73.7613l30.1614,5.0613c-18.7933-23.9895-36.5396-80.8852-41.2041-111.3719-4.6647-30.4867-18.9283-53.1196-18.9283-53.1196,0,0,15.3346-11.5823,26.774-33.1283,11.4395-21.5462,9.3054-53.1196-19.8247-64.3686-29.1301-11.257-83.9632,30.6691-83.9632,30.6691-12.5659-7.9966-83.3921-22.8472-192.6141,8.0837-109.2221,30.923-179.2232,87.3031-186.585,113.0061-7.3619,25.7031,16.5008,61.4414,16.5008,61.4414,5.7118-8.2504,10.8524,27.0913,20.2768,41.0613,9.4245,13.9701,7.7031,11.1063,11.9234,39.0861,4.2283,27.9878,42.172,55.2376,42.172,55.2376,0,0-15.5408-65.741,10.1067-21.1256,5.688,9.9084,28.9079,10.8603,46.686,29.2887,4.4742,4.6409-5.7515-21.086-.952-23.3548,6.6638-3.1494,28.2496,15.9929,28.0433,25.4174-.6585,30.4073-33.1363,96.4974-28.0433,103.9148,43.6793,63.6071,100.3767,91.9597,126.7858,106.2551,26.409,14.2953,33.0728,19.2535,100.0356-16.3896,66.9627-35.6431,105.0492-112.3874,126.7541-135.2345,21.7048-22.8471,21.7048-53.1196,21.4747-86.6684ZM81.0544,192.7077c-17.5162,7.6157-26.0838,20.1817-26.0838,20.1817-11.9948-3.8079-20.7211-27.7577-21.5144-47.979-.7933-20.2212,19.4201-33.5091,19.4201-33.5091,0,0,38.4594,8.7581,46.4559,18.6585,7.9966,9.9004-.7616,35.0323-18.2777,42.648Z" class="coloraf610f svgShape"></path><path fill="#26d7fe" d="m264.4986,120.7204s57.4027-28.0593,61.6865-27.7285c4.2838.3308,4.8898,6.8993,9.0135,10.3264,4.1236,3.4271,11.5489,7.3876,14.976,17.4021,3.427,10.0144-4.2839.3044-23.9895,6.0162-19.7056,5.7118-51.4046,16.8121-61.6865-6.0162Z" class="colorff004f svgShape"></path><path fill="#9ae45f" d="m81.0544,192.7077c-17.5162,7.6157-26.0838,20.1817-26.0838,20.1817-11.9948-3.8079-20.7211-27.7577-21.5144-47.979-.7933-20.2212,19.4201-33.5091,19.4201-33.5091,0,0,38.4594,8.7581,46.4559,18.6585,7.9966,9.9004-.7616,35.0323-18.2777,42.648Z" class="coloreacbaf svgShape"></path><path fill="#d45985" d="m380.0718,576.1648l-.0079-.0159c-.0635.0475-.0555.0554.0079.0159Z" class="colorbdbbe2 svgShape"></path><path fill="#750f08" d="m479.5466,283.3347s20.0694,65.8111,2.6094,125.2785c0,0,24.236-53.786,13.9548-99.861,0,0,27.2758,36.0732,35.1275,71.3021,0,0,24.5607-45.2183-25.8459-127.5632,0,0,12.5953,10.5478,23.7424,22.2189,11.1471,11.6711,21.6466,36.3542,24.9306,53.1125,3.2841,16.7583,2.36,25.5768,0,35.4772-2.3599,9.9004-9.9173,45.4285-20.828,59.0218-10.9108,13.5933-68.4589,95.4893-100.2039,116.5574-31.7449,21.0681-78.5733,52.4005-94.5844,49.1082-16.0112-3.2923-104.9859-66.2805-125.0244-87.9853-20.0386-21.7048-30.3198-39.9825-30.3198-39.9825,0,0-7.4396-10.7089,6.7518-37.1501,14.1914-26.4412,23.0772-47.9853,9.6858-74.911,0,0,29.3513,9.6297,13.8822,56.4664-15.4691,46.8366-11.9599,65.4951-5.718,66.6374,6.2418,1.1423,13.9977-25.186,13.9977-25.186,0,0,3.1561,47.6523,37.873,74.3073,0,0-3.3065-7.7431-6.0271-18.6585,0,0,39.6017,43.7903,73.8724,44.9327,34.2708,1.1423,59.1743-58.641,59.1743-58.641,0,0-20.7149,19.8008-41.8485,17.1353,0,0,60.3353-28.9929,66.2471-89.5112,0,0,7.0542,17.5428,6.2926,55.6213,0,0,15.7244-15.6122,25.3784-55.9754,9.6539-40.3633,7.1789-69.8742,7.1789-69.8742,0,0,16.9449,42.0768,16.5642,64.5431,0,0,21.324-56.3563,13.1371-126.4208Z" class="color754108 svgShape"></path><path fill="#750f08" d="m472.5218,107.9128s29.8122,15.1111,3.2822,95.6473c0,0-.7295-9.0537-11.3221-25.1319,0,0,30.4864,74.4124-20.9196,115.4576,0,0-.3808-30.7328-7.2349-45.5834,0,0,21.324,74.2532-76.1572,116.7108,0,0,73.4355-56.9275,53.2819-152.3143,0,0,19.2577,6.2829,30.6813,27.4165l7.0885,15.993s6.5863-7.2401,8.031-38.1764c1.4447-30.9363-24.5102-68.0628-24.5102-68.0628l35.665,23.2279s12.2247-22.6066,2.1141-65.1845Z" class="color754108 svgShape"></path><path fill="#750f08" d="M401.4531 262.8014s3.2691 32.7184-19.0069 38.4302c-22.276 5.7118-26.8454-3.9982-26.8454-3.9982 0 0-14.2794 35.7138-53.6908 38.4193-39.4113 2.7055-32.5572 75.2452 5.1406 124.3666 0 0-38.8401 9.1388-63.972-15.4218 0 0 6.8476 57.1179 52.1437 78.2515 0 0-53.7903-15.4339-62.9626-75.4016v-27.0883s33.5879 21.3665 40.4811 19.9466c0 0-19.8659-22.5073-20.9955-52.5253-1.1297-30.018-.7181-53.7879 17.3252-62.3533 18.0433-8.5654 25.65-.1137 47.8701-17.7064 22.2202-17.5928 32.2757-26.4261 36.0392-50.4426 0 0 20.6436 57.9108 48.4734 5.5236zM121.7033 144.4431s83.4555 14.5651 100.8447 77.9659c17.3892 63.4008-14.8412 99.385-14.8412 99.385l-17.1793 13.8586-10.8653-4.8547.3965-49.748 14.8507 23.2279s10.2281-6.7957 13.8721-41.4765c3.6441-34.6806-17.8704-78.6614-87.0782-118.3583zM233.7495 118.2658s-.2153 14.5038 27.8368 15.3725c0 0 2.2315 15.3583 31.5589 11.368 29.3273-3.9903 62.3844-13.9859 70.4165 14.0018 0 0 7.6051-26.7862-5.9617-46.7446 0 0 11.9948-4.4416 24.5607 12.1554 0 0-6.8541-26.6511-41.4105-35.0139 0 0-14.1843-1.3135-12.9467 3.5868 1.2376 4.9002 16.5324 14.3689 21.1653 24.7708 4.6329 10.4019 4.6329 11.8298 4.6329 11.8298 0 0-23.1328-7.9965-36.841-1.1423-13.7083 6.8541-17.1353 11.7092-31.1292 5.7118-13.9938-5.9974-20.2116-12.172-20.2116-12.172 0 0-23.8643 6.9395-31.6704-3.7241zM325.9531 174.4252s-6.8118 25.2027-35.0929 40.7031c0 0 14.3493-3.1464 28.2463-12.7625 0 0-19.5578 32.7257-55.5419 34.9775 0 0 17.4197 3.8325 28.6622-1.4123 0 0-15.8078 16.4587-46.4826 18.8091 0 0 32.0373 11.4678 66.2029-19.7069l-11.435-.681s40.2664-17.4438 25.4412-59.9269z" class="color754108 svgShape"></path><path fill="#750f08" d="M326.4707 460.0193s28.559-14.6914 18.2777-63.0356c0 0 10.8524 11.6296 11.9948 38.475 0 0 7.3539-6.283 6.8184-35.9843-.5355-29.7012 49.8905-49.9701 49.8905-49.9701 0 0-48.0369 11.1571-60.3694 40.5592 0 0-4.1412-11.1515-21.6596-15.7209 0 0 19.6082 54.262-4.9525 85.6768zM284.0598 67.6542c-2.1712.4525-4.3371 1.0014-6.4488 1.7223-2.1213.6962-4.1931 1.5474-6.2191 2.4946-2.029.9426-4.0238 1.971-5.9496 3.1162-3.8563 2.2855-7.5104 4.9062-10.9762 7.7598-1.7244 1.4375-3.3926 2.943-5.0134 4.5051-.8547.8246-1.6774 1.6536-2.489 2.5141-.1557-.362-.2928-.73-.3887-1.1104-.3497-1.2357-.3776-2.5721-.1829-3.931.2134-1.3609.6526-2.7415 1.2673-4.0761.3086-.6663.6522-1.3251 1.0306-1.9628.1886-.3191.3863-.632.5889-.9376.1922-.2874.4395-.6351.5881-.8206l5.0673-6.3278-7.9062 1.9993c-5.2507 1.3278-10.3638 3.3034-15.091 5.9628-4.7421 2.635-9.1184 5.8834-13.0704 9.5475-3.9465 3.6743-7.482 7.7531-10.5803 12.1248-.7923 1.1147-1.5567 2.2485-2.292 3.4008.0616-.9793.1176-1.959.1892-2.9373.1252-1.6301.2436-3.2828.3949-4.8832l.42-4.4443-3.6553 2.3082c-3.0129 1.9024-5.8829 4.0435-8.5636 6.4008-2.6742 2.3603-5.2006 4.9081-7.3491 7.7614-2.1698 2.8258-4.0496 5.8854-5.4241 9.1552-1.3687 3.2536-2.3643 6.7184-2.395 10.217.2818-1.7167.8128-3.367 1.4519-4.9597.6413-1.5925 1.3949-3.1316 2.2525-4.6049 1.7333-2.9359 3.7697-5.6687 6.1065-8.1179 2.3275-2.4543 4.869-4.6928 7.5799-6.7055 1.5069-1.1194 3.0674-2.1638 4.6608-3.1571-.0246.1879-.0529.3745-.0767.5628-.2126 1.6567-.4131 3.3144-.594 4.9746-.3673 3.32-.6368 6.6509-.8653 9.9895l-.9963 14.5551 6.1297-13.4234c.4611-1.0097 1.0481-2.1775 1.6321-3.2527.5926-1.094 1.2141-2.1785 1.8681-3.2445 1.3069-2.1323 2.6946-4.2196 4.1776-6.2343 2.9816-4.0158 6.2827-7.7891 9.9386-11.1579 3.6505-3.3721 7.6327-6.3629 11.9203-8.8164.527-.3231 1.0703-.6154 1.6184-.8989.5472-.2848 1.0869-.5859 1.64-.8588 1.1205-.5142 2.2199-1.0808 3.3714-1.5247.2596-.1136.5242-.2143.7861-.322-.4379 1.2908-.768 2.6394-.9369 4.0443-.2179 1.9555-.1142 4.0391.5151 6.0121.6023 1.9814 1.735 3.7604 3.0676 5.217l1.9423 2.123 1.714-2.244c1.2221-1.6001 2.6728-3.2601 4.1037-4.8292 1.4488-1.5801 2.9595-3.11 4.5176-4.5916 3.1015-2.9792 6.4101-5.7596 9.9396-8.2338 3.503-2.5132 7.2292-4.7341 11.1665-6.5465 3.9255-1.8462 8.0865-3.2121 12.3997-4.1166-2.1971.1231-4.4033.3727-6.5823.8032zM407.2503 142.4293c-.2303-3.1107-.6693-6.2175-1.521-9.2226-.8212-3.0054-1.9585-5.9324-3.5096-8.6186-1.5426-2.6735-3.4297-5.1989-5.8506-7.0699 1.0469 1.1039 1.9157 2.3463 2.6873 3.6335.7702 1.2886 1.4439 2.6272 2.0168 4.0037 1.1287 2.7595 1.9555 5.6229 2.4262 8.5454.479 2.9189.6947 5.8727.6633 8.8251-.0172 1.6491-.1159 3.2958-.2659 4.9386-.121-.1203-.2403-.2413-.3618-.3616-1.0389-1.0269-2.0847-2.046-3.1428-3.0527-2.1121-2.0181-4.3046-3.9501-6.5122-5.8703l-9.6223-8.3699 6.1533 11.319c.4644.8542.9597 1.8845 1.3987 2.8608.4462.9927.8702 2.0005 1.2642 3.0209.7865 2.0411 1.5074 4.1109 2.1272 6.2089 1.2209 4.2001 2.1039 8.4944 2.5176 12.8222.419 4.3256.3971 8.6807-.1609 12.9645-.1122 1.0749-.3244 2.1339-.4983 3.1989-.2342 1.0525-.4208 2.1178-.7203 3.1546-.06.2491-.1313.495-.1967.7425-.6671-.9933-1.4329-1.9418-2.3241-2.8078-1.2436-1.1874-2.7469-2.2193-4.4526-2.8275-1.6997-.6252-3.5373-.773-5.255-.6117l-2.4965.2344.6566 2.3643c.4712 1.6971.8737 3.5835 1.2 5.412.3297 1.8457.5901 3.7077.7947 5.5766.4354 3.7356.6229 7.5102.4803 11.2769-.1013 3.7688-.5243 7.5386-1.3435 11.2394-.7893 3.7106-2.0377 7.3312-3.6881 10.8138 1.0759-1.5955 2.0683-3.2642 2.9205-5.0097.8328-1.7517 1.5955-3.5505 2.2096-5.4026.6366-1.8457 1.1391-3.7389 1.5504-5.6509.4162-1.9117.7546-3.845.9749-5.792.4466-3.8945.5532-7.8254.3978-11.7483-.0935-1.9609-.2667-3.918-.5029-5.8718-.1283-1.0337-.2701-2.0483-.4387-3.0723.3411.0847.6763.1856.9976.3233 1.0471.4064 1.9955 1.0908 2.8427 1.9433.8386.8664 1.5721 1.9014 2.1806 3.0349.3042.5666.5807 1.1556.8231 1.7579.1218.3007.2347.6046.3397.9078.098.2866.2086.6429.2587.8458l1.6887 6.8289 2.7965-6.52c1.8666-4.352 3.1955-8.9592 3.8401-13.6583.6716-4.6963.7228-9.4622.2599-14.1522-.4729-4.6915-1.445-9.3108-2.8521-13.7803-.3592-1.1477-.7472-2.286-1.1647-3.4134.6559.5628 1.315 1.122 1.9651 1.6914 1.0749.9433 2.1558 1.9077 3.1891 2.8613l2.8421 2.6231.338-3.7409c.2802-3.1027.305-6.2345.0796-9.348zM470.4078 29.4614s-10.8524-.2853-21.4192 8.7981c-10.5668 9.0833-23.6689 22.3837-58.2602 18.7526 0 0 9.4919 15.7481 44.0144 19.1752 0 0-17.1691 3.7127-30.5918-2.5703 0 0 10.5079 14.0712 31.7004 17.7896 0 0-12.2804 2.3287-22.276-2.1614 0 0 6.6615 5.8594 21.1673 7.5046 0 0-15.7411 3.2686-28.5926-7.5046 0 0 5.4936 15.7867 28.5926 15.7867s65.9856-28.6156 65.1047-52.0055c-.8809-23.39-29.4398-23.5649-29.4398-23.5649z" class="color754108 svgShape"></path><path fill="#ff0f00" d="m59.8265,133.6512s69.3973-51.3835,106.5239-64.318c0,0-28.9397,17.6737-27.7974,33.9851,0,0,34.3082-33.1053,131.9423-55.25,97.634-22.1447,137.654-14.4075,137.654-14.4075,0,0-40.7869-19.3444-108.355-9.257-67.5681,10.0875-131.3475,31.5972-168.8206,51.4927-37.4731,19.8955-76.3758,49.5941-76.0032,52.8449.3727,3.2508-7.268,1.2534,4.8559,4.9098Z" class="colorffa800 svgShape"></path><path fill="#ff0f00" d="M344.7485 53.3401s25.7031 8.3052 63.4009-5.2718c37.6977-13.577 65.6855-39.0079 86.248-26.578 20.5624 12.4298 22.5386 34.6167 16.6955 56.0804-5.8431 21.4638 21.0392-47.1332-1.2552-64.2408-22.2945-17.1075-53.5397-3.4223-73.6984 8.1604-20.1586 11.5826-47.4099 34.1346-91.3907 31.8499zM442.9912 118.2658s7.4253 4.3774 16.9449 3.9966c0 0 3.8079 16.3737 0 24.3703-3.8079 7.9965-47.7886-11.3215-47.7886-11.3215 0 0 37.69 65.4809 36.6467 115.3199l2.4278 1.86s14.8399-31.7923 3.9709-57.7825c-10.869-25.9904-16.3577-38.4564-16.3577-38.4564l21.9254 10.5621s13.1609-.5177 13.0223-13.3959-4.157-41.1547-4.157-41.1547c0 0-19.5903 7.3367-26.6348 6.0022zM101.885 147.5846s9.0262 17.6081 0 34.7927c-9.0262 17.1845-34.2062 20.7368-32.159 50.3129 2.0473 29.5762 44.9681 3.4449 72.3194 46.2744-8.0688-9.1347-57.1281-24.036-60.039-16.1632-4.066 10.997-16.1912-17.8506-21.0899-30.1211-4.8987-12.2705-11.7445-19.1553-1.7678-26.4548 9.9767-7.2995 27.8824-14.1874 34.7945-23.8483 6.9121-9.6608 11.8275-22.7979 7.9418-34.7927z" class="colorffa800 svgShape"></path><path fill="#ff0f00" d="M121.7033 144.4432c3.4708 2.4093 74.823 54.7939 70.4969 126.516l-21.6612-27.9878s-6.4406 40.8419-6.2829 73.682c.1577 32.8402-27.8812 5.558-39.4114-27.9878 0 0-21.6879 14.6076-17.7065 37.1266 0 0-20.5624-17.7065-26.2742-58.2602 0 0 2.9698 40.8549 14.3364 63.2659 11.3666 22.4109 23.6522 18.8966 23.6522 18.8966 0 0 1.8389-27.113 2.0497-32.6876.2108-5.5746 12.0695 21.0682 21.1431 22.0665 9.0736.9983 26.741 7.41 32.6548 15.0248 5.9138 7.6148-.6102-28.1155 1.9933-53.4377 2.6036-25.3223 8.1339-17.3258 8.1339-17.3258l11.746 25.4174s15.1727-30.4665 11.1333-64.4022c-4.0393-33.9357-45.1642-80.7723-86.0035-99.9068zM348.9689 206.2256s-3.0781 54.2766-27.0675 79.5842c-23.9895 25.3076-80.042 14.1113-74.4436 63.6944 0 0 9.8386-23.86 39.3201-32.5548 29.4814-8.6947 81.2621-16.6697 62.191-110.7238zM445.2759 328.077s-7.9965 78.3248-25.7031 92.282l3.9126 32.0125s29.1068-54.5012 21.7905-124.2944zM479.5466 283.3347s-2.6952 62.0326-17.7065 86.4383l4.2094 27.2106s22.0648-32.0461 13.4971-113.6489zM407.0069 377.7695s-3.427 78.4419-62.2584 127.1824c0 0 51.9773-26.2742 62.2584-75.7763 10.2812-49.5021 0-51.4061 0-51.4061zM233.7495 118.2658s24.3703.1887 47.979-18.4698c23.6088-18.6585 72.015-31.7454 88.9368 8.1168 0 0-22.2992-20.3019-40.9577-17.6364-18.6586 2.6654-81.4881 50.6478-95.958 27.9894zM481.5228 110.3636s9.4474 3.614 15.1592 49.8332c5.7118 46.2191 14.8506 90.4486 44.5519 102.6046 0 0-15.4286-23.0984-26.2814-76.2189-10.8527-53.1205-25.7874-81.5508-25.7874-81.5508l-7.6423 5.3318z" class="colorffa800 svgShape"></path><path fill="#f3ffe9" d="m52.9347,207.5584s-16.4323-39.6017-5.3894-54.0716c11.0427-14.4699,47.3386,2.1943,50.4935,1.9039,3.1548-.2904.151-11.131-21.173-16.5642-21.324-5.4332-22.8154-10.5411-31.0181-5.1754-8.2028,5.3657-18.3699,21.1161-16.1993,30.1168,2.1706,9.0008,16.4232,44.0823,23.2864,43.7904Z" class="colorfff3e9 svgShape"></path><path fill="#ff0f00" d="m232.2597,327.5058s-9.093,19.314,4.8216,37.5074c0,0-2.8754,25.8934,9.9859,47.5982,0,0-13.7569-7.9965-17.7259-38.5546,0,0-19.6765,52.834-2.8268,87.6759,16.8498,34.8419,55.9755,58.4506,55.9755,58.4506,0,0-43.124-37.317-48.8357-62.1633-5.7118-24.8463-5.696-59.117-5.696-59.117,0,0,11.4322,39.9218,37.4086,39.6666,0,0-13.3058-41.1768-14.2747-52.8711-.9689-11.6943-12.9599-43.03-12.1389-57.1144.821-14.0843-6.6935-1.0784-6.6935-1.0784Z" class="colorffa800 svgShape"></path><path d="M60.1124 216.5841l.0149.0489c-.005-.0125.017.0439-.0149-.0489zM65.2341 164.9669c.2934-.1434.0726-.0256 1.2303-.6456.1487-.0684.2528-.0642 1.2253-.5172.2267-.0788.486-.1158 1.2236-.3824.1566-.0336.2422-.0291 1.2327-.2489.637-.0537 1.2853-.1854 1.9243-.1952 2.9803-.3146 7.9772.2943 12.4111 2.1231-1.5825-4.2311-6.1818-7.7672-12.3125-8.3241-.1618-.0502-1.0696-.0483-2.664-.0298-7.2421.5686-14.1553 7.7338-14.5343 16.3503 3.7105-3.0757 5.4331-5.1187 10.2635-8.1303zM236.6938 122.333c6.6692 5.5329 16.8959 5.433 26.1743 2.8263 32.802 38.7992 71.6096-20.4286 96.5455 17.0293-1.0167-26.5292-4.9697-29.3195-26.7583-46.6916 14.2796-2.099 29.1469 5.4552 40.6522 15.1514-51.864-66.5206-108.6231 32.3041-139.558 7.6174.4476 1.0241.9341 2.1549 2.9443 4.0672zm39.1465-2.0242c15.7054-7.4369 30.3945-17.9669 48.7081-23.2451 1.354 6.8855 22.1427 15.9896 23.9092 25.7048-25.8623-9.0635-58.4282 22.5514-77.4445-.3518 1.1892-.4739 2.5093-1.0507 4.8271-2.1079zM371.2058 486.5757c-7.2352 6.6088-16.6079 13.6215-26.4574 18.3762 32.816-13.951 59.1851-43.9834 67.7496-79.4645 3.9628 23.3501.1862 51.1007-.8971 74.4576 27.9548-38.2798 41.8227-86.1415 42.4692-133.9322 7.6717 18.1257 9.359 40.484 8.4019 59.8767 22.739-42.805 24.6041-94.7649 17.0745-142.5548 3.3779 35.6432 1.469 72.7281-10.3749 107.7265-3.7155-21.574-13.5983-43.5601-23.2913-63.638 1.0869 40.9748-2.9503 82.7732-19.9413 121.0553-1.7585-22.8243-9.9384-48.8515-17.7558-70.905 2.8226 51.4619-9.1931 83.4942-36.9774 109.0022zM458.0322 71.6178c-9.1389 11.8043-29.7012 13.3275-29.7012 13.3275 11.8043 6.4734 25.6774 3.8079 25.6774 3.8079-3.2623 6.4733-22.4407 13.7083-22.4407 13.7083 113.7618-27.4872 57.1212-104.6018 17.8178-57.7356-21.1277 17.5242-40.8851 16.6796-41.2362 16.888 14.0891 19.9045 49.883 10.004 49.883 10.004z" fill="#000000" class="color000000 svgShape"></path><path d="m563.1111,364.3734c-.4686-18.8794-4.074-38.9477-10.6072-55.8826-5.6466-14.6366-14.0183-27.923-23.5271-40.338,0,0,42.0204,9.3765,42.0612,9.3856-2.8027-.6254-6.4938-4.1764-8.8599-5.8373-2.646-1.8574-5.2352-3.8015-7.6842-5.9138-4.7562-4.1022-8.8667-8.8244-12.3375-14.057-13.9278-20.9979-21.7445-46.26-26.2626-70.8965-4.8749-26.5822-7.6654-53.2017-21.3302-77.1393.5417.949,16.2421-12.3368,17.512-13.6401,10.4481-10.7235,18.3268-25.2469,18.2687-40.5203-.0661-17.3978-9.6614-34.4051-24.6278-43.3201-18.7115-11.1458-40.3249-5.6989-58.4828,3.797-2.558,1.3378-5.0747,2.7541-7.5624,4.2182-9.0601,5.3325-17.0428,12.307-26.2365,17.4662-27.8757-14.116-62.905-12.6576-93.127-9.9406-29.8641,2.6848-59.3885,8.3712-88.5764,15.1138-16.3701,3.7816-32.4638,8.0931-48.4039,13.4111-8.7548,2.9213-17.4268,6.0924-25.9883,9.54-8.6207,3.4715-17.1294,7.2226-25.4942,11.2726-12.7035,6.1506-24.9515,13.1997-36.887,20.7232-14.2816,9.0023-27.7021,19.0624-39.8256,31.0872-4.4373,4.4011-8.2881,9.1662-13.308,12.9597-11.867,8.9678-14.3372,23.7999-12.1389,37.7418,1.5203,9.6421,4.2299,19.3313,8.7543,28.0147,6.2594,12.0133,15.6554,20.5444,18.8023,34.1868,2.7378,11.8687,4.8893,25.1214,16.1802,32.0236.797.4873.5255,10.3914.675,11.8023.4642,4.3813,1.1628,8.7382,2.0946,13.0444,1.8866,8.7182,4.7247,17.2464,8.5851,25.2923,3.8551,8.0351,8.7398,15.5987,14.693,22.2423,8.6875,9.695,20.6635,16.9428,31.9401,23.2394-4.5267-12.3974-8.2226-24.4592-8.0154-38.9185,20.0353,34.23,35.431-.6699,71.0599,66.4984-3.6093-13.0523-10.1325-33.8306-12.493-47.3053,14.2074,6.2609,22.2483,17.755,20.2423,33.4492-1.9928,15.5907-10.0409,30.0755-16.3281,44.2444-3.3583,7.5684-7.5907,15.238-8.9877,23.4596-2.6609,15.6592,4.2769,30.8959,13.5768,43.0195,6.8177,8.8876,16.4306,16.4239,24.359,24.2781,13.5087,13.3822,28.3817,25.2852,43.7114,36.5031,27.2201,19.9191,55.4613,37.3491,86.2132,51.3211,7.4742-3.3945,14.8549-6.9967,22.1499-10.7605,30.7864-15.8839,59.6339-35.3757,86.1839-57.6027,33.5061-28.0503,62.8154-62.5738,84.761-100.3946,1.4541-2.506,2.8643-5.0375,4.2197-7.5983,4.5692-8.6321,10.3501-16.4419,14.3803-25.4142,4.9675-11.0589,6.9659-21.8505,6.6679-33.8564ZM52.0375,208.8395c-6.4431-10.2541-12.7827-23.8243-14.6549-37.0561-2.1906-12.21,2.2518-27.1127,14.7536-33.7593l.2459-.3163c35.9564,2.289,66.1956,15.7806,31.1397,48.9912-10.4763,8.3313-24.8223,8.1374-31.4842,22.1405Zm461.7797,151.7948c12.0818,80.8389-16.2885,105.4375-56.5467,146.7928l7.4255-39.3466c-9.314,23.7767-24.013,45.7596-38.1587,63.4616-48.5561,32.3625-87.3367,62.2727-122.5887,28.4834l.0003.0003c-11.3573-10.852-22.9457-23.9766-31.6289-38.6281l10.5129,28.9642c-50.7792-33.7949-60.4319-60.0109-61.1285-104.4859-6.4838,93.2243-35.5176,11.5017-35.404-.7465,7.784-29.8805,36.1531-62.3234,22.8817-91.31,12.1424-1.2728,14.007-17.7428,23.9693-25.1222-1.1758,11.7662,2.5738,24.6036,10.1931,35.2637-1.3129,23.3822,6.2958,46.952,17.3865,68.1972-19.7694-5.2542-25.3222-26.4232-32.3151-40.7633.0121-.0674-3.7639,21.1389-3.8003,21.3427-4.7968,44.9024,22.194,91.7957,64.1574,110.111-31.4273-18.3107-52.9368-52.6435-52.428-89.8125,11.9583,12.4047,30.3172,15.9756,47.728,13.7627-11.5358-20.6909-23.4145-41.7285-26.5012-65.6377l.5581.658c-8.905-88.2888,70.3576-38.2206,95.5158-105.939,14.1685,28.8762,52.0939,15.0558,48.2206-15.7736-4.5045,18.1636-25.8816,34.2961-39.2197,11.7823-3.3364-13.4017-9.6995-49.0177-12.6161-62.7672,3.9119,142.3812-80.0597,66.634-102.2859,138.8389l-.4333-1.0019c-10.9591-23.3846,12.4697-48.4809,22.357-66.8018-18.7876,18.5207-46.814,36.5861-58.416,61.3487-.4457,1.3975-3.3203,3.9395-9.9731,1.9486-5.0795-4.8932-13.6888-9.5772-21.029-12.3788-.2051-13.2148,1.8726-30.1643,2.3212-43.7226,7.1297,10.4414,8.4185,26.5868,7.4244,39.4724-.0522.0811,7.3275-11.394,7.4825-11.6352,47.2983-73.5476-11.0309-149.8129-75.7751-170.7471,57.3656,32.1297,98.4697,92.2965,74.3258,154.2292-3.1164-11.6457-11.5321-23.9756-20.1007-33.7243-.3047,28.4009-7.0617,56.3985-.8833,84.7683-34.9464-27.9637-46.9024-2.932-49.8149-61.0639-8.0558,18.0322-12.9357,37.0617-7.4604,57.4025-23.9314-17.2295-35.7215-47.2879-36.3967-76.9895.0959-.0227.1889-.0496.285-.072,21.3037-5.0051,47.3796-2.4194,64.8914,14.3415-16.3278-20.5078-45.196-27.7414-71.3421-23.9378-11.0184-10.9719-7.646-28.4369-15.812-42.6368l.6888-.2572c.0142.0402.021.0601.0283.0811-.7203-13.2242,22.2132-16.1003,29.8671-25.0754,35.5996-39.9585,4.1132-54.2175-31.6794-60.4998,27.9233-28.2492,64.2624-48.3621,101.4791-63.6304-23.9249,21.7484-22.9398,35.94-22.9398,35.94,16.2142-29.276,73.6164-51.0894,97.1723-59.0073,65.9143-14.5749,131.0514-23.2592,171.0499-8.0898-17.9958,9.0816-39.2679,15.6876-60.3132,17.1187,73.2629,2.9859,97.6259-44.2073,137.031-43.1079,62.4925,10.1276,36.8208,79.4347-8.0129,96.9322l-.1356-.1807-.8644.679c-9.3385,4.6123-19.3631,8.1031-29.7753,10.6032,7.1381-.0874,14.3131-.9467,21.3691-2.5424,7.1714,12.5288,5.8702,30.641.4194,44.8933-12.3883-5.8819-37.7668-17.9315-49.8718-23.6792,26.8468,30.0521,49.4406,71.8002,36.8667,113.6123-6.0416-18.9314-21.3345-35.5174-39.7991-44.0088,19.7168,35.1474,24.49,87.1059-10.1091,115.253,29.7213-20.9761,35.5964-61.4804,26.3794-95.2666,9.4673,9.3018,16.0977,21.5915,19.9363,35.6925,0-.086,0,14.2698,0,14.5274,22.7685-41.4699,17.7743-76.1955,1.8382-109.3907,4.3219,2.3065,17.5571,9.3787,21.5398,11.2239,9.4992-20.2216,15.7213-44.4222,5.1587-66.4569,3.5899-1.3517,6.0334-2.2481,10.8602-4.6235,18.8989,28.158,21.0299,120.9525,52.5428,155.0116l-37.4682-8.3603c16.8831,14.7933,37.9784,30.2234,49.8622,84.5886-17.6067,127.1664-26.2716,54.3202-38.6985,21.8941Z" fill="#000000" class="color000000 svgShape"></path></svg>